<svg xmlns="http://www.w3.org/2000/svg" xmlns:xlink="http://www.w3.org/1999/xlink" contentStyleType="text/css" data-diagram-type="CLASS" height="856px" preserveAspectRatio="none" style="width:554px;height:856px;background:#FFFFFF;" version="1.1" viewBox="0 0 554 856" width="554px" zoomAndPan="magnify"><defs/><g><!--cluster Entities (Enterprise Business Rules)--><g class="cluster" data-entity="Entities (Enterprise Business Rules)" data-source-line="1" data-uid="ent0002" id="cluster_Entities (Enterprise Business Rules)"><path d="M8.5,611.88 L292.7061,611.88 A3.75,3.75 0 0 1 295.2061,614.38 L302.2061,634.1769 L302.5,634.1769 A2.5,2.5 0 0 1 305,636.6769 L305,847.02 A2.5,2.5 0 0 1 302.5,849.52 L8.5,849.52 A2.5,2.5 0 0 1 6,847.02 L6,614.38 A2.5,2.5 0 0 1 8.5,611.88" fill="none" style="stroke:#000000;stroke-width:1.5;"/><line style="stroke:#000000;stroke-width:1.5;" x1="6" x2="302.2061" y1="634.1769" y2="634.1769"/><text fill="#000000" font-family="sans-serif" font-size="14" font-weight="bold" lengthAdjust="spacing" textLength="283.2061" x="10" y="626.8751">Entities (Enterprise Business Rules)</text></g><!--cluster Interface Adapters (Application Business Rules)--><g class="cluster" data-entity="Interface Adapters (Application Business Rules)" data-source-line="15" data-uid="ent0004" id="cluster_Interface Adapters (Application Business Rules)"><path d="M155.5,325.24 L534.7119,325.24 A3.75,3.75 0 0 1 537.2119,327.74 L544.2119,347.5369 L544.5,347.5369 A2.5,2.5 0 0 1 547,350.0369 L547,560.38 A2.5,2.5 0 0 1 544.5,562.88 L155.5,562.88 A2.5,2.5 0 0 1 153,560.38 L153,327.74 A2.5,2.5 0 0 1 155.5,325.24" fill="none" style="stroke:#000000;stroke-width:1.5;"/><line style="stroke:#000000;stroke-width:1.5;" x1="153" x2="544.2119" y1="347.5369" y2="347.5369"/><text fill="#000000" font-family="sans-serif" font-size="14" font-weight="bold" lengthAdjust="spacing" textLength="378.2119" x="157" y="340.2351">Interface Adapters (Application Business Rules)</text></g><!--cluster Frameworks & Drivers--><g class="cluster" data-entity="Frameworks &amp; Drivers" data-source-line="29" data-uid="ent0006" id="cluster_Frameworks &amp; Drivers"><path d="M37.5,6 L214.7373,6 A3.75,3.75 0 0 1 217.2373,8.5 L224.2373,28.2969 L294.5,28.2969 A2.5,2.5 0 0 1 297,30.7969 L297,273.74 A2.5,2.5 0 0 1 294.5,276.24 L37.5,276.24 A2.5,2.5 0 0 1 35,273.74 L35,8.5 A2.5,2.5 0 0 1 37.5,6" fill="none" style="stroke:#000000;stroke-width:1.5;"/><line style="stroke:#000000;stroke-width:1.5;" x1="35" x2="224.2373" y1="28.2969" y2="28.2969"/><text fill="#000000" font-family="sans-serif" font-size="14" font-weight="bold" lengthAdjust="spacing" textLength="176.2373" x="39" y="20.9951">Frameworks &amp; Drivers</text></g><!--class MedicationSchedule--><g class="entity" data-entity="MedicationSchedule" data-source-line="2" data-uid="ent0003" id="entity_MedicationSchedule"><rect fill="#F1F1F1" height="186.6406" rx="2.5" ry="2.5" style="stroke:#181818;stroke-width:0.5;" width="187.2529" x="43.37" y="646.88"/><ellipse cx="64.8308" cy="667.0128" fill="#DA70D6" rx="11" ry="11" style="stroke:#181818;stroke-width:1;"/><path d="M64.4246,662.8253 L64.4246,670.8097 L65.0808,670.8097 Q66.5183,670.8097 67.1277,669.9034 Q67.7527,668.9816 67.7527,666.8097 Q67.7527,664.6378 67.1277,663.7316 Q66.5183,662.8253 65.0808,662.8253 L64.4246,662.8253 Z M61.9715,660.6222 L64.5965,660.6222 Q67.6277,660.6222 68.9558,662.0753 Q70.2996,663.5128 70.2996,666.8097 Q70.2996,670.1066 68.9558,671.5597 Q67.6277,673.0128 64.5965,673.0128 L61.9715,673.0128 L61.9715,660.6222 Z " fill="#000000"/><text fill="#000000" font-family="sans-serif" font-size="12" font-style="italic" lengthAdjust="spacing" textLength="97.0195" x="102.2046" y="663.0187">«Django Model»</text><text fill="#000000" font-family="sans-serif" font-size="14" lengthAdjust="spacing" textLength="140.8955" x="80.2666" y="678.8439">MedicationSchedule</text><line style="stroke:#181818;stroke-width:0.5;" x1="44.37" x2="229.6229" y1="687.1456" y2="687.1456"/><ellipse cx="54.37" cy="700.7941" fill="none" rx="3" ry="3" style="stroke:#038048;stroke-width:1;"/><text fill="#000000" font-family="sans-serif" font-size="14" lengthAdjust="spacing" textLength="40.1953" x="63.37" y="704.1407">id: int</text><ellipse cx="54.37" cy="717.0909" fill="none" rx="3" ry="3" style="stroke:#038048;stroke-width:1;"/><text fill="#000000" font-family="sans-serif" font-size="14" lengthAdjust="spacing" textLength="152.5303" x="63.37" y="720.4376">medication_name: str</text><ellipse cx="54.37" cy="733.3878" fill="none" rx="3" ry="3" style="stroke:#038048;stroke-width:1;"/><text fill="#000000" font-family="sans-serif" font-size="14" lengthAdjust="spacing" textLength="97.9453" x="63.37" y="736.7345">frequency: int</text><ellipse cx="54.37" cy="749.6847" fill="none" rx="3" ry="3" style="stroke:#038048;stroke-width:1;"/><text fill="#000000" font-family="sans-serif" font-size="14" lengthAdjust="spacing" textLength="133.8066" x="63.37" y="753.0314">duration_days: int?</text><ellipse cx="54.37" cy="765.9816" fill="none" rx="3" ry="3" style="stroke:#038048;stroke-width:1;"/><text fill="#000000" font-family="sans-serif" font-size="14" lengthAdjust="spacing" textLength="111.9111" x="63.37" y="769.3282">start_date: date</text><ellipse cx="54.37" cy="782.2784" fill="none" rx="3" ry="3" style="stroke:#038048;stroke-width:1;"/><text fill="#000000" font-family="sans-serif" font-size="14" lengthAdjust="spacing" textLength="113.1074" x="63.37" y="785.6251">end_date: date?</text><ellipse cx="54.37" cy="798.5753" fill="#84BE84" rx="3" ry="3" style="stroke:#038048;stroke-width:1;"/><text fill="#000000" font-family="sans-serif" font-size="14" lengthAdjust="spacing" textLength="161.2529" x="63.37" y="801.922">user: ForeignKey(User)</text><line style="stroke:#181818;stroke-width:1;" x1="44.37" x2="229.6229" y1="809.2238" y2="809.2238"/><ellipse cx="54.37" cy="822.8722" fill="#84BE84" rx="3" ry="3" style="stroke:#038048;stroke-width:1;"/><text fill="#000000" font-family="sans-serif" font-size="14" lengthAdjust="spacing" textLength="43.6953" x="63.37" y="826.2189">save()</text></g><!--class MedicationScheduleSerializer--><g class="entity" data-entity="MedicationScheduleSerializer" data-source-line="16" data-uid="ent0005" id="entity_MedicationScheduleSerializer"><rect fill="#F1F1F1" height="186.6406" rx="2.5" ry="2.5" style="stroke:#181818;stroke-width:0.5;" width="256.9863" x="170.51" y="360.24"/><ellipse cx="194.0011" cy="380.3728" fill="#FFA500" rx="11" ry="11" style="stroke:#181818;stroke-width:1;"/><path d="M193.4855,380.9353 Q191.6261,380.2322 190.9699,379.4666 Q190.3292,378.6853 190.3292,377.3728 Q190.3292,375.6853 191.4074,374.7166 Q192.4855,373.7478 194.3605,373.7478 Q195.2199,373.7478 196.0636,373.9509 Q196.923,374.1384 197.7667,374.5291 L197.7667,376.9197 Q196.9855,376.3572 196.1574,376.0759 Q195.3449,375.7791 194.548,375.7791 Q193.673,375.7791 193.1886,376.1384 Q192.7199,376.4978 192.7199,377.1541 Q192.7199,377.6697 193.0636,378.0134 Q193.4074,378.3416 194.5011,378.7478 L195.5636,379.1541 Q197.048,379.7009 197.7511,380.6072 Q198.4699,381.5134 198.4699,382.8884 Q198.4699,384.7634 197.3605,385.6853 Q196.2511,386.6072 194.0011,386.6072 Q193.0792,386.6072 192.1574,386.3884 Q191.2355,386.1697 190.3761,385.7478 L190.3761,383.2166 Q191.3449,383.9041 192.2667,384.2478 Q193.1886,384.5916 194.0792,384.5916 Q194.9855,384.5916 195.4855,384.1853 Q195.9855,383.7634 195.9855,383.0291 Q195.9855,382.4666 195.6417,382.0603 Q195.3136,381.6384 194.6886,381.3884 L193.4855,380.9353 Z " fill="#000000"/><text fill="#000000" font-family="sans-serif" font-size="12" font-style="italic" lengthAdjust="spacing" textLength="70.5879" x="277.6527" y="376.3787">«Serializer»</text><text fill="#000000" font-family="sans-serif" font-size="14" lengthAdjust="spacing" textLength="206.1172" x="209.888" y="392.2039">MedicationScheduleSerializer</text><line style="stroke:#181818;stroke-width:0.5;" x1="171.51" x2="426.4963" y1="400.5056" y2="400.5056"/><ellipse cx="181.51" cy="414.1541" fill="none" rx="3" ry="3" style="stroke:#038048;stroke-width:1;"/><text fill="#000000" font-family="sans-serif" font-size="14" lengthAdjust="spacing" textLength="123.1494" x="190.51" y="417.5007">id: ReadOnlyField</text><ellipse cx="181.51" cy="430.4509" fill="none" rx="3" ry="3" style="stroke:#038048;stroke-width:1;"/><text fill="#000000" font-family="sans-serif" font-size="14" lengthAdjust="spacing" textLength="227.0352" x="190.51" y="433.7976">user_id: PrimaryKeyRelatedField</text><ellipse cx="181.51" cy="446.7478" fill="none" rx="3" ry="3" style="stroke:#038048;stroke-width:1;"/><text fill="#000000" font-family="sans-serif" font-size="14" lengthAdjust="spacing" textLength="230.9863" x="190.51" y="450.0945">daily_plan: SerializerMethodField</text><ellipse cx="181.51" cy="463.0447" fill="none" rx="3" ry="3" style="stroke:#038048;stroke-width:1;"/><text fill="#000000" font-family="sans-serif" font-size="14" lengthAdjust="spacing" textLength="225.1689" x="190.51" y="466.3914">end_date: SerializerMethodField</text><line style="stroke:#181818;stroke-width:1;" x1="171.51" x2="426.4963" y1="473.6931" y2="473.6931"/><ellipse cx="181.51" cy="487.3416" fill="#84BE84" rx="3" ry="3" style="stroke:#038048;stroke-width:1;"/><text fill="#000000" font-family="sans-serif" font-size="14" lengthAdjust="spacing" textLength="105.8545" x="190.51" y="490.6882">get_end_date()</text><ellipse cx="181.51" cy="503.6384" fill="#84BE84" rx="3" ry="3" style="stroke:#038048;stroke-width:1;"/><text fill="#000000" font-family="sans-serif" font-size="14" lengthAdjust="spacing" textLength="144.6621" x="190.51" y="506.9851">validate_frequency()</text><ellipse cx="181.51" cy="519.9353" fill="#84BE84" rx="3" ry="3" style="stroke:#038048;stroke-width:1;"/><text fill="#000000" font-family="sans-serif" font-size="14" lengthAdjust="spacing" textLength="111.6719" x="190.51" y="523.282">get_daily_plan()</text><rect fill="#F24D5C" height="6" style="stroke:#C82930;stroke-width:1;" width="6" x="178.51" y="533.2322"/><text fill="#000000" font-family="sans-serif" font-size="14" lengthAdjust="spacing" textLength="159.1064" x="190.51" y="539.5789">_generate_daily_plan()</text></g><!--class MedicationScheduleViewSet--><g class="entity" data-entity="MedicationScheduleViewSet" data-source-line="30" data-uid="ent0007" id="entity_MedicationScheduleViewSet"><rect fill="#F1F1F1" height="219.2344" rx="2.5" ry="2.5" style="stroke:#181818;stroke-width:0.5;" width="229.415" x="51.29" y="41"/><ellipse cx="66.29" cy="61.1328" fill="#ADD8E6" rx="11" ry="11" style="stroke:#181818;stroke-width:1;"/><path d="M69.2587,66.7734 Q68.6806,67.0703 68.04,67.2109 Q67.3994,67.3672 66.6962,67.3672 Q64.1962,67.3672 62.8681,65.7266 Q61.5556,64.0703 61.5556,60.9453 Q61.5556,57.8203 62.8681,56.1641 Q64.1962,54.5078 66.6962,54.5078 Q67.3994,54.5078 68.04,54.6641 Q68.6962,54.8203 69.2587,55.1172 L69.2587,57.8359 Q68.6337,57.2578 68.04,56.9922 Q67.4462,56.7109 66.8212,56.7109 Q65.4775,56.7109 64.79,57.7891 Q64.1025,58.8516 64.1025,60.9453 Q64.1025,63.0391 64.79,64.1172 Q65.4775,65.1797 66.8212,65.1797 Q67.4462,65.1797 68.04,64.9141 Q68.6337,64.6328 69.2587,64.0547 L69.2587,66.7734 Z " fill="#000000"/><text fill="#000000" font-family="sans-serif" font-size="12" font-style="italic" lengthAdjust="spacing" textLength="63.1289" x="147.4331" y="57.1387">«ViewSet»</text><text fill="#000000" font-family="sans-serif" font-size="14" lengthAdjust="spacing" textLength="197.415" x="80.29" y="72.9639">MedicationScheduleViewSet</text><line style="stroke:#181818;stroke-width:0.5;" x1="52.29" x2="279.705" y1="81.2656" y2="81.2656"/><rect fill="none" height="6" style="stroke:#C82930;stroke-width:1;" width="6" x="59.29" y="91.9141"/><text fill="#000000" font-family="sans-serif" font-size="14" lengthAdjust="spacing" textLength="61.8105" x="71.29" y="98.2607">queryset</text><rect fill="none" height="6" style="stroke:#C82930;stroke-width:1;" width="6" x="59.29" y="108.2109"/><text fill="#000000" font-family="sans-serif" font-size="14" lengthAdjust="spacing" textLength="105.3828" x="71.29" y="114.5576">serializer_class</text><rect fill="none" height="6" style="stroke:#C82930;stroke-width:1;" width="6" x="59.29" y="124.5078"/><text fill="#000000" font-family="sans-serif" font-size="14" lengthAdjust="spacing" textLength="106.5039" x="71.29" y="130.8545">filter_backends</text><rect fill="none" height="6" style="stroke:#C82930;stroke-width:1;" width="6" x="59.29" y="140.8047"/><text fill="#000000" font-family="sans-serif" font-size="14" lengthAdjust="spacing" textLength="95.7168" x="71.29" y="147.1514">filterset_class</text><line style="stroke:#181818;stroke-width:1;" x1="52.29" x2="279.705" y1="154.4531" y2="154.4531"/><ellipse cx="62.29" cy="168.1016" fill="#84BE84" rx="3" ry="3" style="stroke:#038048;stroke-width:1;"/><text fill="#000000" font-family="sans-serif" font-size="14" lengthAdjust="spacing" textLength="31.4863" x="71.29" y="171.4482">list()</text><ellipse cx="62.29" cy="184.3984" fill="#84BE84" rx="3" ry="3" style="stroke:#038048;stroke-width:1;"/><text fill="#000000" font-family="sans-serif" font-size="14" lengthAdjust="spacing" textLength="65.9395" x="71.29" y="187.7451">retrieve()</text><ellipse cx="62.29" cy="200.6953" fill="#84BE84" rx="3" ry="3" style="stroke:#038048;stroke-width:1;"/><text fill="#000000" font-family="sans-serif" font-size="14" lengthAdjust="spacing" textLength="55.6719" x="71.29" y="204.042">create()</text><ellipse cx="62.29" cy="216.9922" fill="#84BE84" rx="3" ry="3" style="stroke:#038048;stroke-width:1;"/><text fill="#000000" font-family="sans-serif" font-size="14" lengthAdjust="spacing" textLength="100.3037" x="71.29" y="220.3389">next_takings()</text><rect fill="#F24D5C" height="6" style="stroke:#C82930;stroke-width:1;" width="6" x="59.29" y="230.2891"/><text fill="#000000" font-family="sans-serif" font-size="14" lengthAdjust="spacing" textLength="166.9199" x="71.29" y="236.6357">_get_required_params()</text><rect fill="#F24D5C" height="6" style="stroke:#C82930;stroke-width:1;" width="6" x="59.29" y="246.5859"/><text fill="#000000" font-family="sans-serif" font-size="14" lengthAdjust="spacing" textLength="175.3418" x="71.29" y="252.9326">_get_upcoming_takings()</text></g><!--link MedicationScheduleViewSet to MedicationSchedule--><g class="link" data-entity-1="MedicationScheduleViewSet" data-entity-2="MedicationSchedule" data-source-line="45" data-uid="lnk8" id="link_MedicationScheduleViewSet_MedicationSchedule"><path codeLine="45" d="M111.27,260.47 C104.12,278.99 97.93,298.36 94,317.24 C71.05,427.61 79.94,459.03 94,570.88 C97.12,595.72 101.268,616.3234 107.438,640.7034" fill="none" id="MedicationScheduleViewSet-to-MedicationSchedule" style="stroke:#181818;stroke-width:1;"/><polygon fill="#181818" points="108.91,646.52,110.5797,636.8137,107.6833,641.6728,102.8242,638.7764,108.91,646.52" style="stroke:#181818;stroke-width:1;"/><text fill="#000000" font-family="sans-serif" font-size="13" lengthAdjust="spacing" textLength="59.8584" x="95" y="458.1269">manages</text></g><!--link MedicationScheduleViewSet to MedicationScheduleSerializer--><g class="link" data-entity-1="MedicationScheduleViewSet" data-entity-2="MedicationScheduleSerializer" data-source-line="46" data-uid="lnk9" id="link_MedicationScheduleViewSet_MedicationScheduleSerializer"><path codeLine="46" d="M214.2,260.69 C228.63,293.32 241.8645,323.2821 255.7645,354.7321" fill="none" id="MedicationScheduleViewSet-to-MedicationScheduleSerializer" style="stroke:#181818;stroke-width:1;"/><polygon fill="#181818" points="258.19,360.22,258.2104,350.3712,256.1688,355.6468,250.8932,353.6052,258.19,360.22" style="stroke:#181818;stroke-width:1;"/><text fill="#000000" font-family="sans-serif" font-size="13" lengthAdjust="spacing" textLength="29.7832" x="235" y="305.3069">uses</text></g><!--link MedicationScheduleSerializer to MedicationSchedule--><g class="link" data-entity-1="MedicationScheduleSerializer" data-entity-2="MedicationSchedule" data-source-line="47" data-uid="lnk10" id="link_MedicationScheduleSerializer_MedicationSchedule"><path codeLine="47" d="M246.18,547.37 C228.08,579.16 210.8075,609.5152 192.7175,641.3052" fill="none" id="MedicationScheduleSerializer-to-MedicationSchedule" style="stroke:#181818;stroke-width:1;stroke-dasharray:7.0,7.0;"/><polygon fill="#181818" points="189.75,646.52,197.6777,640.6761,192.2229,642.1743,190.7247,636.7195,189.75,646.52" style="stroke:#181818;stroke-width:1;"/><text fill="#000000" font-family="sans-serif" font-size="13" lengthAdjust="spacing" textLength="60.5122" x="228" y="591.9469">serializes</text></g><!--SRC=[bPFHYjim44NVynL37XQ7hlS3mfAoRHee9RGajAz2QqsSsSYoEvApTSl-UyUkxIXXKzWN8zrxPz0SoPNE3Zf7c7voWGAXXqHMo1MJH_XGUtBeFMngYtusXJyJWCngKTPeADE1IhVDzcZ4X_jxI9Qt9MTxCZDOFccNbx0k3LfOBBfIW7T0PWxaGhyhnZRAwGBdu0FtrexnPuqkQ-AygVbVskZ6TyRxtl51Sn0vI9FssyleJ2GEuTeZps5LCbBklc2JV1TXrfbfEZJKHqnQxMNoCfbK0wZFBPwTpX0UZAvaBSWUgihsOxoDsHQPjANVo1szhT0JQZY3oBXWjq5jlZhRh0YjYSPHhVcDgT3So4GRj3AlYLD6asrKPRMRH_tN6FRbMUw4x7fgf9HZK4D1Ckl5enIrWXhlSBJQ_EaWlPo2oj4XjoKNvZdy5SiZUIxvuE46ban7mVz_mZy8dxSOEhmVRotb-_1eQo4y62FU5EIet7WC_TQFqwkkUo_loCgjgqSvamn-hafnd1qWMV9X9C0OcF1uefKnnl0S_Wegw0EvtCTyWcfX4gDHbHOE5sPTPMKXDMUb7RthKD9qyTgFF8TfePq0zzCt5qSFLzh8mtorHvIwkxjsXf6_d_u5]--></g></svg>
